<svg version="1.1" viewBox="0.0 0.0 436.3097112860892 438.1023622047244" fill="none" stroke="none" stroke-linecap="square" stroke-miterlimit="10" xmlns:xlink="http://www.w3.org/1999/xlink" xmlns="http://www.w3.org/2000/svg"><clipPath id="p.0"><path d="m0 0l436.30972 0l0 438.10236l-436.30972 0l0 -438.10236z" clip-rule="nonzero"/></clipPath><g clip-path="url(#p.0)"><path fill="#000000" fill-opacity="0.0" d="m0 0l436.30972 0l0 438.10236l-436.30972 0z" fill-rule="evenodd"/><path fill="#434343" d="m19.2 66.938484l0 0c0 -26.365234 21.37325 -47.738483 47.738483 -47.738483l190.94824 0l0 0c12.661011 0 24.803497 5.0295753 33.756195 13.982277c8.952698 8.952705 13.982269 21.095177 13.982269 33.756207l0 190.94824c0 26.365234 -21.37323 47.738464 -47.738464 47.738464l-190.94824 0c-26.365234 0 -47.738483 -21.37323 -47.738483 -47.738464z" fill-rule="evenodd"/><path stroke="#000000" stroke-width="1.0" stroke-linejoin="round" stroke-linecap="butt" d="m19.2 66.938484l0 0c0 -26.365234 21.37325 -47.738483 47.738483 -47.738483l190.94824 0l0 0c12.661011 0 24.803497 5.0295753 33.756195 13.982277c8.952698 8.952705 13.982269 21.095177 13.982269 33.756207l0 190.94824c0 26.365234 -21.37323 47.738464 -47.738464 47.738464l-190.94824 0c-26.365234 0 -47.738483 -21.37323 -47.738483 -47.738464z" fill-rule="evenodd"/><path fill="#f3f3f3" d="m38.08189 79.52629l0 0c0 -22.88911 18.55529 -41.4444 41.4444 -41.4444l165.77261 0l0 0c10.991745 0 21.53328 4.3664513 29.305618 12.1387825c7.772339 7.772331 12.138794 18.31388 12.138794 29.305618l0 165.77261c0 22.889114 -18.555298 41.444412 -41.444412 41.444412l-165.77261 0c-22.88911 0 -41.4444 -18.555298 -41.4444 -41.444412z" fill-rule="evenodd"/><path stroke="#000000" stroke-width="1.0" stroke-linejoin="round" stroke-linecap="butt" d="m38.08189 79.52629l0 0c0 -22.88911 18.55529 -41.4444 41.4444 -41.4444l165.77261 0l0 0c10.991745 0 21.53328 4.3664513 29.305618 12.1387825c7.772339 7.772331 12.138794 18.31388 12.138794 29.305618l0 165.77261c0 22.889114 -18.555298 41.444412 -41.444412 41.444412l-165.77261 0c-22.88911 0 -41.4444 -18.555298 -41.4444 -41.444412z" fill-rule="evenodd"/><path fill="#434343" d="m136.31812 182.60777l0 0c0 -26.365234 21.373245 -47.73848 47.73848 -47.73848l190.94823 0l0 0c12.661041 0 24.803497 5.0295715 33.756195 13.982285c8.952728 8.952698 13.9823 21.09517 13.9823 33.756195l0 190.94823c0 26.365234 -21.37326 47.738495 -47.738495 47.738495l-190.94823 0c-26.365234 0 -47.73848 -21.37326 -47.73848 -47.738495z" fill-rule="evenodd"/><path stroke="#000000" stroke-width="1.0" stroke-linejoin="round" stroke-linecap="butt" d="m136.31812 182.60777l0 0c0 -26.365234 21.373245 -47.73848 47.73848 -47.73848l190.94823 0l0 0c12.661041 0 24.803497 5.0295715 33.756195 13.982285c8.952728 8.952698 13.9823 21.09517 13.9823 33.756195l0 190.94823c0 26.365234 -21.37326 47.738495 -47.738495 47.738495l-190.94823 0c-26.365234 0 -47.73848 -21.37326 -47.73848 -47.738495z" fill-rule="evenodd"/><path fill="#f3f3f3" d="m159.53072 198.08269l0 0c0 -22.091827 17.908966 -40.000793 40.000793 -40.000793l159.9984 0l0 0c10.608887 0 20.783234 4.2143555 28.284851 11.715958c7.501587 7.501602 11.715942 17.675964 11.715942 28.284836l0 159.9984c0 22.091827 -17.908966 40.000793 -40.000793 40.000793l-159.9984 0c-22.091827 0 -40.000793 -17.908966 -40.000793 -40.000793z" fill-rule="evenodd"/><path stroke="#000000" stroke-width="1.0" stroke-linejoin="round" stroke-linecap="butt" d="m159.53072 198.08269l0 0c0 -22.091827 17.908966 -40.000793 40.000793 -40.000793l159.9984 0l0 0c10.608887 0 20.783234 4.2143555 28.284851 11.715958c7.501587 7.501602 11.715942 17.675964 11.715942 28.284836l0 159.9984c0 22.091827 -17.908966 40.000793 -40.000793 40.000793l-159.9984 0c-22.091827 0 -40.000793 -17.908966 -40.000793 -40.000793z" fill-rule="evenodd"/><path fill="#d9d9d9" d="m49.640945 87.333855l0 0c0 -22.908943 19.403343 -41.480312 43.338585 -41.480312l0 0c11.4941025 0 22.51744 4.3702354 30.645004 12.149303c8.127556 7.779068 12.693581 18.32975 12.693581 29.331009l0 0c0 22.90895 -19.40335 41.480324 -43.338585 41.480324l0 0c-23.935242 0 -43.338585 -18.571373 -43.338585 -41.480324z" fill-rule="evenodd"/><path stroke="#f3f3f3" stroke-width="1.0" stroke-linejoin="round" stroke-linecap="butt" d="m49.640945 87.333855l0 0c0 -22.908943 19.403343 -41.480312 43.338585 -41.480312l0 0c11.4941025 0 22.51744 4.3702354 30.645004 12.149303c8.127556 7.779068 12.693581 18.32975 12.693581 29.331009l0 0c0 22.90895 -19.40335 41.480324 -43.338585 41.480324l0 0c-23.935242 0 -43.338585 -18.571373 -43.338585 -41.480324z" fill-rule="evenodd"/><path fill="#f3f3f3" d="m53.955906 104.570076l0 0c0 -29.553757 23.633724 -53.511806 52.787403 -53.511806l0 0c14.000084 0 27.426765 5.6378326 37.326332 15.673244c9.899551 10.035408 15.461075 23.646347 15.461075 37.838562l0 0c0 29.553764 -23.633728 53.511818 -52.787407 53.511818l0 0c-29.153679 0 -52.787403 -23.958054 -52.787403 -53.511818z" fill-rule="evenodd"/><path stroke="#f3f3f3" stroke-width="1.0" stroke-linejoin="round" stroke-linecap="butt" d="m53.955906 104.570076l0 0c0 -29.553757 23.633724 -53.511806 52.787403 -53.511806l0 0c14.000084 0 27.426765 5.6378326 37.326332 15.673244c9.899551 10.035408 15.461075 23.646347 15.461075 37.838562l0 0c0 29.553764 -23.633728 53.511818 -52.787407 53.511818l0 0c-29.153679 0 -52.787403 -23.958054 -52.787403 -53.511818z" fill-rule="evenodd"/><path fill="#cccccc" d="m305.62518 347.12125l0 0c0 -22.908936 19.40335 -41.480316 43.338593 -41.480316l0 0c11.49411 0 22.517456 4.3702393 30.64502 12.1493225c8.127563 7.7790527 12.693573 18.329742 12.693573 29.330994l0 0c0 22.908966 -19.40335 41.480316 -43.338593 41.480316l0 0c-23.935242 0 -43.338593 -18.57135 -43.338593 -41.480316z" fill-rule="evenodd"/><path stroke="#f3f3f3" stroke-width="1.0" stroke-linejoin="round" stroke-linecap="butt" d="m305.62518 347.12125l0 0c0 -22.908936 19.40335 -41.480316 43.338593 -41.480316l0 0c11.49411 0 22.517456 4.3702393 30.64502 12.1493225c8.127563 7.7790527 12.693573 18.329742 12.693573 29.330994l0 0c0 22.908966 -19.40335 41.480316 -43.338593 41.480316l0 0c-23.935242 0 -43.338593 -18.57135 -43.338593 -41.480316z" fill-rule="evenodd"/><path fill="#f3f3f3" d="m280.0 331.263l0 0c0 -28.12738 23.633728 -50.92914 52.787415 -50.92914l0 0c14.000092 0 27.426758 5.3657227 37.326324 14.916809c9.899536 9.551056 15.46106 22.505066 15.46106 36.01233l0 0c0 28.12738 -23.633728 50.92914 -52.787384 50.92914l0 0c-29.153687 0 -52.787415 -22.801758 -52.787415 -50.92914z" fill-rule="evenodd"/><path stroke="#f3f3f3" stroke-width="1.0" stroke-linejoin="round" stroke-linecap="butt" d="m280.0 331.263l0 0c0 -28.12738 23.633728 -50.92914 52.787415 -50.92914l0 0c14.000092 0 27.426758 5.3657227 37.326324 14.916809c9.899536 9.551056 15.46106 22.505066 15.46106 36.01233l0 0c0 28.12738 -23.633728 50.92914 -52.787384 50.92914l0 0c-29.153687 0 -52.787415 -22.801758 -52.787415 -50.92914z" fill-rule="evenodd"/><path fill="#e69138" d="m136.31812 163.08508l0 0c0 -15.58316 12.632629 -28.21579 28.21579 -28.21579l112.85974 0l0 0c7.483307 0 14.660095 2.9727173 19.9516 8.264206c5.2914734 5.2914886 8.264191 12.468292 8.264191 19.951584l0 114.34009c0 15.58313 -12.632629 28.21576 -28.21579 28.21576l-112.85974 0c-15.58316 0 -28.21579 -12.632629 -28.21579 -28.21576z" fill-rule="evenodd"/><path stroke="#000000" stroke-width="1.0" stroke-linejoin="round" stroke-linecap="butt" d="m136.31812 163.08508l0 0c0 -15.58316 12.632629 -28.21579 28.21579 -28.21579l112.85974 0l0 0c7.483307 0 14.660095 2.9727173 19.9516 8.264206c5.2914734 5.2914886 8.264191 12.468292 8.264191 19.951584l0 114.34009c0 15.58313 -12.632629 28.21576 -28.21579 28.21576l-112.85974 0c-15.58316 0 -28.21579 -12.632629 -28.21579 -28.21576z" fill-rule="evenodd"/><path fill="#ffd966" d="m152.80556 174.81767l0 0c0 -12.547699 10.171921 -22.71962 22.71962 -22.71962l90.87573 0l0 0c6.0256042 0 11.804443 2.3936768 16.065186 6.654419c4.2607727 4.2607574 6.654419 10.039581 6.654419 16.0652l0 90.87572c0 12.547699 -10.1719055 22.719635 -22.719604 22.719635l-90.87573 0c-12.547699 0 -22.71962 -10.171936 -22.71962 -22.719635z" fill-rule="evenodd"/><path stroke="#000000" stroke-width="1.0" stroke-linejoin="round" stroke-linecap="butt" d="m152.80556 174.81767l0 0c0 -12.547699 10.171921 -22.71962 22.71962 -22.71962l90.87573 0l0 0c6.0256042 0 11.804443 2.3936768 16.065186 6.654419c4.2607727 4.2607574 6.654419 10.039581 6.654419 16.0652l0 90.87572c0 12.547699 -10.1719055 22.719635 -22.719604 22.719635l-90.87573 0c-12.547699 0 -22.71962 -10.171936 -22.71962 -22.719635z" fill-rule="evenodd"/></g></svg>